<svg width="256" height="32" viewBox="0 0 256 32" fill="none" xmlns="http://www.w3.org/2000/svg">
<path d="M11.576 4.864C9.72 4.864 8.30133 5.55733 7.32 6.944C6.33867 8.33067 5.848 10.2293 5.848 12.64C5.848 15.072 6.296 16.96 7.192 18.304C8.10933 19.6267 9.57067 20.288 11.576 20.288C12.5147 20.288 13.4427 20.1813 14.36 19.968C15.2987 19.7547 16.312 19.456 17.4 19.072V23.136C16.3973 23.5413 15.4053 23.84 14.424 24.032C13.4427 24.224 12.344 24.32 11.128 24.32C8.78133 24.32 6.84 23.84 5.304 22.88C3.78933 21.8987 2.66933 20.5333 1.944 18.784C1.21867 17.0133 0.856 14.9547 0.856 12.608C0.856 10.304 1.272 8.26667 2.104 6.496C2.936 4.72533 4.14133 3.33867 5.72 2.336C7.32 1.33333 9.272 0.831999 11.576 0.831999C12.7067 0.831999 13.8373 0.981332 14.968 1.28C16.12 1.55733 17.2187 1.94133 18.264 2.432L16.696 6.368C15.8427 5.96267 14.9787 5.61067 14.104 5.312C13.2507 5.01333 12.408 4.864 11.576 4.864ZM37.335 10.112H31.607V24H26.839V10.112H21.111V6.528H37.335V10.112ZM48.7265 6.176C51.0732 6.176 52.8652 6.688 54.1025 7.712C55.3612 8.71467 55.9905 10.2613 55.9905 12.352V24H52.6625L51.7345 21.632H51.6065C50.8598 22.5707 50.0705 23.2533 49.2385 23.68C48.4065 24.1067 47.2652 24.32 45.8145 24.32C44.2572 24.32 42.9665 23.872 41.9425 22.976C40.9185 22.0587 40.4065 20.6613 40.4065 18.784C40.4065 16.928 41.0572 15.5627 42.3585 14.688C43.6598 13.792 45.6118 13.3013 48.2145 13.216L51.2545 13.12V12.352C51.2545 11.4347 51.0092 10.7627 50.5185 10.336C50.0492 9.90933 49.3878 9.696 48.5345 9.696C47.6812 9.696 46.8492 9.824 46.0385 10.08C45.2278 10.3147 44.4172 10.6133 43.6065 10.976L42.0385 7.744C42.9772 7.25333 44.0118 6.86933 45.1425 6.592C46.2945 6.31467 47.4892 6.176 48.7265 6.176ZM49.3985 15.968C47.8625 16.0107 46.7958 16.288 46.1985 16.8C45.6012 17.312 45.3025 17.984 45.3025 18.816C45.3025 19.5413 45.5158 20.064 45.9425 20.384C46.3692 20.6827 46.9238 20.832 47.6065 20.832C48.6305 20.832 49.4945 20.5333 50.1985 19.936C50.9025 19.3173 51.2545 18.4533 51.2545 17.344V15.904L49.3985 15.968ZM86.703 6.528L80.271 14.912L87.311 24H82.223L75.567 15.136V24H71.119V15.136L64.463 24H59.375L66.415 14.912L59.983 6.528H64.911L71.119 15.008V6.528H75.567V15.008L81.775 6.528H86.703ZM95.4165 13.44C95.4165 13.8027 95.3952 14.2507 95.3525 14.784C95.3312 15.3173 95.2992 15.8613 95.2565 16.416C95.2352 16.9707 95.2032 17.4613 95.1605 17.888C95.1178 18.3147 95.0858 18.6133 95.0645 18.784L103.129 6.528H108.857V24H104.249V17.024C104.249 16.448 104.27 15.8187 104.312 15.136C104.355 14.432 104.398 13.7813 104.441 13.184C104.505 12.5653 104.547 12.096 104.569 11.776L96.5365 24H90.8085V6.528H95.4165V13.44ZM124.568 6.208C126.53 6.208 128.12 6.976 129.336 8.512C130.552 10.0267 131.16 12.2667 131.16 15.232C131.16 18.1973 130.53 20.4587 129.272 22.016C128.013 23.552 126.402 24.32 124.44 24.32C123.181 24.32 122.178 24.096 121.432 23.648C120.685 23.1787 120.077 22.656 119.608 22.08H119.352C119.522 22.976 119.608 23.8293 119.608 24.64V31.68H114.84V6.528H118.712L119.384 8.8H119.608C120.077 8.096 120.706 7.488 121.496 6.976C122.285 6.464 123.309 6.208 124.568 6.208ZM123.032 10.016C121.794 10.016 120.92 10.4 120.408 11.168C119.917 11.936 119.65 13.1093 119.608 14.688V15.2C119.608 16.8853 119.853 18.1867 120.344 19.104C120.856 20 121.773 20.448 123.096 20.448C124.184 20.448 124.984 20 125.496 19.104C126.029 18.1867 126.296 16.8747 126.296 15.168C126.296 11.7333 125.208 10.016 123.032 10.016ZM151.962 15.232C151.962 18.1333 151.194 20.3733 149.658 21.952C148.143 23.5307 146.074 24.32 143.45 24.32C141.828 24.32 140.378 23.968 139.098 23.264C137.839 22.56 136.847 21.536 136.122 20.192C135.396 18.8267 135.034 17.1733 135.034 15.232C135.034 12.3307 135.791 10.1013 137.306 8.544C138.82 6.98667 140.9 6.208 143.546 6.208C145.188 6.208 146.639 6.56 147.898 7.264C149.156 7.968 150.148 8.992 150.874 10.336C151.599 11.6587 151.962 13.2907 151.962 15.232ZM139.898 15.232C139.898 16.96 140.175 18.272 140.73 19.168C141.306 20.0427 142.234 20.48 143.514 20.48C144.772 20.48 145.679 20.0427 146.234 19.168C146.81 18.272 147.098 16.96 147.098 15.232C147.098 13.504 146.81 12.2133 146.234 11.36C145.679 10.4853 144.762 10.048 143.482 10.048C142.223 10.048 141.306 10.4853 140.73 11.36C140.175 12.2133 139.898 13.504 139.898 15.232ZM172.39 11.104C172.39 12.0427 172.092 12.8427 171.494 13.504C170.918 14.1653 170.054 14.592 168.902 14.784V14.912C170.118 15.0613 171.089 15.4773 171.814 16.16C172.561 16.8427 172.934 17.7173 172.934 18.784C172.934 19.7867 172.668 20.6827 172.134 21.472C171.622 22.2613 170.801 22.88 169.67 23.328C168.54 23.776 167.057 24 165.222 24H156.902V6.528H165.222C166.588 6.528 167.804 6.67733 168.87 6.976C169.958 7.25333 170.812 7.72267 171.43 8.384C172.07 9.04533 172.39 9.952 172.39 11.104ZM167.558 11.488C167.558 10.4213 166.716 9.888 165.03 9.888H161.67V13.344H164.486C165.489 13.344 166.246 13.2053 166.758 12.928C167.292 12.6293 167.558 12.1493 167.558 11.488ZM168.006 18.528C168.006 17.8453 167.74 17.3547 167.206 17.056C166.673 16.736 165.873 16.576 164.806 16.576H161.67V20.704H164.902C165.798 20.704 166.534 20.544 167.11 20.224C167.708 19.8827 168.006 19.3173 168.006 18.528Z" fill="#14142B"/>
<path d="M193.899 15.232C193.899 18.1333 193.131 20.3733 191.595 21.952C190.081 23.5307 188.011 24.32 185.387 24.32C183.766 24.32 182.315 23.968 181.035 23.264C179.777 22.56 178.785 21.536 178.059 20.192C177.334 18.8267 176.971 17.1733 176.971 15.232C176.971 12.3307 177.729 10.1013 179.243 8.544C180.758 6.98667 182.838 6.208 185.483 6.208C187.126 6.208 188.577 6.56 189.835 7.264C191.094 7.968 192.086 8.992 192.811 10.336C193.537 11.6587 193.899 13.2907 193.899 15.232ZM181.835 15.232C181.835 16.96 182.113 18.272 182.667 19.168C183.243 20.0427 184.171 20.48 185.451 20.48C186.71 20.48 187.617 20.0427 188.171 19.168C188.747 18.272 189.035 16.96 189.035 15.232C189.035 13.504 188.747 12.2133 188.171 11.36C187.617 10.4853 186.699 10.048 185.419 10.048C184.161 10.048 183.243 10.4853 182.667 11.36C182.113 12.2133 181.835 13.504 181.835 15.232ZM202.719 12.928C202.719 14.4427 203.423 15.2 204.831 15.2C205.749 15.2 206.602 15.104 207.391 14.912C208.181 14.6987 208.97 14.4213 209.759 14.08V6.528H214.527V24H209.759V17.056C209.013 17.4613 208.159 17.8347 207.199 18.176C206.239 18.496 205.151 18.656 203.935 18.656C202.122 18.656 200.671 18.1867 199.583 17.248C198.495 16.3093 197.951 14.9013 197.951 13.024V6.528H202.719V12.928ZM231.983 6.528H237.231L230.319 14.912L237.839 24H232.431L225.295 15.136V24H220.527V6.528H225.295V15.008L231.983 6.528ZM248.508 6.176C250.854 6.176 252.646 6.688 253.884 7.712C255.142 8.71467 255.772 10.2613 255.772 12.352V24H252.444L251.516 21.632H251.388C250.641 22.5707 249.852 23.2533 249.02 23.68C248.188 24.1067 247.046 24.32 245.596 24.32C244.038 24.32 242.748 23.872 241.724 22.976C240.7 22.0587 240.188 20.6613 240.188 18.784C240.188 16.928 240.838 15.5627 242.14 14.688C243.441 13.792 245.393 13.3013 247.996 13.216L251.036 13.12V12.352C251.036 11.4347 250.79 10.7627 250.3 10.336C249.83 9.90933 249.169 9.696 248.316 9.696C247.462 9.696 246.63 9.824 245.82 10.08C245.009 10.3147 244.198 10.6133 243.388 10.976L241.82 7.744C242.758 7.25333 243.793 6.86933 244.924 6.592C246.076 6.31467 247.27 6.176 248.508 6.176ZM249.18 15.968C247.644 16.0107 246.577 16.288 245.98 16.8C245.382 17.312 245.084 17.984 245.084 18.816C245.084 19.5413 245.297 20.064 245.724 20.384C246.15 20.6827 246.705 20.832 247.388 20.832C248.412 20.832 249.276 20.5333 249.98 19.936C250.684 19.3173 251.036 18.4533 251.036 17.344V15.904L249.18 15.968Z" fill="#5F2EEA"/>
</svg>
