<svg width="80" height="80" viewBox="0 0 80 80" fill="none" xmlns="http://www.w3.org/2000/svg">
<path d="M23.3333 26.6667C23.3333 17.4619 30.7952 10 40 10C49.2047 10 56.6666 17.4619 56.6666 26.6667C56.6666 35.8714 49.2047 43.3333 40 43.3333C30.7952 43.3333 23.3333 35.8714 23.3333 26.6667ZM40 36.6667C45.5228 36.6667 50 32.1895 50 26.6667C50 21.1438 45.5228 16.6667 40 16.6667C34.4771 16.6667 30 21.1438 30 26.6667C30 32.1895 34.4771 36.6667 40 36.6667Z" fill="#D3ADF7"/>
<path d="M21.1438 54.4772C16.1428 59.4781 13.3333 66.2609 13.3333 73.3333H20C20 68.029 22.1071 62.9419 25.8578 59.1912C29.6086 55.4405 34.6957 53.3333 40 53.3333C45.3043 53.3333 50.3914 55.4405 54.1421 59.1912C57.8928 62.9419 60 68.029 60 73.3333H66.6666C66.6666 66.2609 63.8571 59.4781 58.8562 54.4772C53.8552 49.4762 47.0724 46.6667 40 46.6667C32.9275 46.6667 26.1448 49.4762 21.1438 54.4772Z" fill="#D3ADF7"/>
</svg>
